<?xml version="1.0" encoding="utf-8"?>
<svg version="1.1" id="Layer_1" x="0px" y="0px" viewBox="0 0 221.6 144.6" style="enable-background:new 0 0 221.6 144.6;" xmlns="http://www.w3.org/2000/svg">
  <style type="text/css">
	.st0{fill:#EAEAEA;}
	.st1{fill:#E62132;}
	.st2{fill:#F3ADAD;}
	.st3{fill:#423B4C;}
	.st4{fill:#FFFFFF;}
	.st5{fill:#F7BAC0;}
	.st6{display:none;fill:#423B4C;}
	.st7{fill:#C4C4C4;}
	.st8{fill:#493F58;}
</style>
  <title>07</title>
  <g transform="matrix(0.740555, 0, 0, 0.740555, 51.026104, 31.89719)" style="">
    <path class="st0" d="M 56.6 78.336 L 53.814 78.704 L 42.039 80.386 L 38.306 80.912 L 39.515 50.212 C 39.515 50.212 48.452 47.215 53.971 51.421 L 56.6 78.336 Z" style=""/>
    <path class="st1" d="M 42.039 80.386 L 31.367 81.858 L 30.526 78.073 C 33.312 77.022 40.514 79.808 42.039 80.386 Z" style=""/>
    <path class="st2" d="M 44.562 69.452 C 44.562 69.452 46.244 69.977 45.245 71.449 L 43.142 70.766 C 43.142 70.766 44.036 69.137 44.562 69.452 Z" style=""/>
    <path class="st2" d="M 44.824 72.08 C 44.824 72.08 44.036 73.552 42.932 73.552 C 41.828 73.552 41.04 72.291 41.04 72.291 L 43.352 71.66 L 44.824 72.08 Z" style=""/>
    <path class="st3" d="M 50.607 79.177 L 47.295 79.65 L 46.56 51.105 C 46.77 50.212 45.771 49.107 45.771 49.107 L 49.555 49.266 C 49.03 49.739 48.715 50.369 48.61 51.053 C 49.293 54.522 50.449 75.708 50.607 79.177 Z" style=""/>
    <path class="st4" d="M 44.562 41.853 L 44.299 43.903 L 50.975 49.896 L 50.975 50.579 L 48.662 49.371 L 46.717 49.528 L 42.354 53.208 L 40.146 49.423 C 40.146 49.423 40.882 41.065 44.562 41.853 Z" style=""/>
    <path class="st1" d="M 44.772 41.801 C 44.772 41.801 42.039 41.801 41.565 44.429 C 41.092 47.057 40.093 74.393 40.093 74.393 L 30.841 73.289 C 30.841 73.289 33.943 50.159 29.632 46.795 C 29.632 46.795 35.835 45.585 39.673 44.797 C 39.62 44.797 44.824 39.803 44.772 41.801 Z" style=""/>
    <path class="st1" d="M 66.01 77.022 L 53.866 78.704 C 50.081 69.61 49.082 59.516 51.027 49.844 L 58.492 43.378 C 58.492 43.378 61.489 43.378 61.594 44.271 C 61.594 44.271 59.807 63.985 62.698 68.4 C 64.327 71.029 65.484 73.973 66.01 77.022 Z" style=""/>
    <path class="st2" d="M 46.77 37.437 C 46.77 37.437 44.562 41.012 43.878 43.115 C 43.405 43.693 42.827 44.219 42.196 44.692 C 42.196 44.692 43.405 48.792 47.085 49.055 C 50.765 49.318 50.081 48.372 50.081 48.372 C 50.081 48.372 43.511 46.584 46.77 37.437 Z" style=""/>
    <path class="st5" d="M 32.839 79.282 C 32.839 79.282 36.046 79.861 37.044 79.492 C 37.044 79.492 45.718 79.177 45.035 77.758 C 45.035 77.758 47.085 78.494 46.717 76.601 C 46.717 76.601 49.24 75.918 46.56 74.393 C 44.929 73.447 41.513 72.133 41.092 72.343 C 41.092 72.343 44.089 72.343 45.981 73.342 C 46.191 73.447 46.454 73.447 46.717 73.342 C 47.295 73.079 48.084 72.606 45.823 71.449 C 43.878 70.503 41.67 70.24 39.568 70.766 C 39.515 70.819 39.41 70.819 39.41 70.924 C 39.095 71.292 37.938 72.764 37.675 74.13 L 34.205 73.604 C 34.153 73.552 29.684 77.705 32.839 79.282 Z" style=""/>
    <path class="st2" d="M 46.717 76.601 C 46.717 76.601 44.614 73.92 39.725 74.814 C 39.725 74.761 44.982 74.761 46.717 76.601 Z" style=""/>
    <path class="st2" d="M 45.088 77.81 C 44.824 77.705 42.196 75.97 39.988 77.022 C 41.723 76.864 43.457 77.127 45.088 77.81 Z" style=""/>
    <path class="st1" d="M 29.579 46.795 C 29.579 46.795 27.792 46.427 22.588 69.137 C 22.588 69.137 18.698 79.282 32.839 79.282 C 32.839 79.282 31.788 74.288 35.572 73.763 L 31.156 72.501 L 32.26 68.243 C 32.26 68.243 33.627 46.006 29.579 46.795 Z" style=""/>
    <path class="st1" d="M 34.153 73.604 C 34.153 73.604 30.368 75.076 31.84 79.282 C 31.84 79.282 29.527 75.076 34.153 73.604 Z" style=""/>
    <path class="st1" d="M 61.541 44.271 C 61.541 44.271 73.317 60.883 74.894 64.773 C 76.471 68.663 74.106 73.184 59.018 67.612 C 59.018 67.612 61.751 64.773 58.335 61.514 L 60.805 61.303 C 60.805 61.303 58.755 47.899 61.541 44.271 Z" style=""/>
    <path class="st1" d="M 71.424 61.462 L 60.858 61.303 C 60.858 61.303 68.218 62.04 71.424 61.462 Z" style=""/>
    <path class="st1" d="M 59.807 61.408 C 59.807 61.408 62.803 63.932 60.174 67.506 C 60.174 67.506 63.802 64.721 59.807 61.408 Z" style=""/>
    <path class="st5" d="M 41.46 72.291 C 41.46 72.291 40.619 72.238 38.937 73.71 C 38.937 73.71 40.251 72.08 41.46 72.291 Z" style=""/>
    <path class="st6" d="M 58.124 38.962 C 58.124 38.962 61.068 42.957 57.494 46.006 C 53.919 49.055 52.026 50.632 49.188 48.477 L 58.124 38.962 Z" style=""/>
    <path class="st3" d="M 51.08 49.476 L 48.715 46.69 C 48.137 46.006 48.189 44.955 48.872 44.376 L 55.391 38.804 C 56.074 38.226 57.125 38.278 57.704 38.962 L 60.069 41.748 C 60.648 42.431 60.595 43.483 59.912 44.061 L 53.341 49.633 C 52.657 50.212 51.659 50.159 51.08 49.476 Z" style=""/>
    <path class="st7" d="M 46.139 61.408 C 46.139 61.408 45.088 69.347 43.142 68.873 C 43.142 68.873 42.459 70.03 39.778 69.294 L 46.139 61.408 Z" style=""/>
    <path class="st0" d="M 45.561 62.513 C 45.561 62.513 44.509 69.137 42.722 68.558 C 42.722 68.558 42.774 70.293 39.83 69.347 L 22.378 65.089 C 22.378 65.089 21.221 64.668 21.536 62.67 C 21.536 62.618 45.771 61.198 45.561 62.513 Z" style=""/>
    <path class="st7" d="M 26.11 52.051 L 21.536 62.618 C 21.379 62.986 21.536 63.406 21.904 63.564 C 21.957 63.564 22.009 63.617 22.062 63.617 L 41.513 67.77 C 41.88 67.822 42.249 67.665 42.354 67.296 L 46.139 56.941 C 46.296 56.572 46.086 56.152 45.718 55.994 C 45.666 55.994 45.666 55.994 45.613 55.994 L 26.951 51.631 C 26.635 51.526 26.268 51.736 26.11 52.051 Z" style=""/>
    <path class="st5" d="M 58.387 61.514 C 58.387 61.514 54.865 61.408 51.606 56.362 C 51.343 55.994 50.975 55.731 50.554 55.679 C 49.819 55.574 48.242 55.416 45.14 55.048 C 45.14 55.048 44.246 54.838 42.249 59.674 C 42.249 59.674 41.775 61.356 43.563 60.515 C 43.563 60.515 42.406 62.407 43.195 62.775 C 43.983 63.144 44.982 62.407 44.982 62.407 C 44.982 62.407 45.35 63.512 46.56 62.513 C 46.56 62.513 47.716 65.509 52.973 65.036 L 59.176 67.665 C 59.123 67.612 62.12 64.616 58.387 61.514 Z" style=""/>
    <polygon class="st2" points="49.24 55.679 45.245 57.151 43.511 60.463 45.613 57.466" style=""/>
    <path class="st2" d="M 50.607 56.204 C 50.607 56.204 46.033 57.781 44.929 62.302 C 44.929 62.25 45.718 58.833 50.607 56.204 Z" style=""/>
    <path class="st2" d="M 51.132 58.413 C 51.132 58.413 49.03 59.201 46.56 61.987 C 46.56 61.987 48.452 59.516 49.766 61.303 C 50.344 62.092 51.027 62.775 51.764 63.406 L 49.819 60.83 C 49.766 60.83 48.557 60.095 51.132 58.413 Z" style=""/>
    <path class="st3" d="M 51.764 65.036 C 53.919 64.511 55.443 62.513 55.338 60.305 C 55.969 60.463 56.547 60.778 57.073 61.198 C 57.073 61.198 56.915 65.036 53.498 66.508 C 53.498 66.508 51.448 66.771 51.764 65.036 Z" style=""/>
    <path class="st3" d="M 46.77 33.862 L 50.239 29.395 C 50.239 29.395 51.711 25.609 58.019 28.869 C 64.327 32.128 64.38 34.546 63.592 35.755 C 62.803 36.964 61.016 39.33 59.281 38.647 C 57.546 37.963 47.295 36.386 47.295 36.386 L 46.77 33.862 Z" style=""/>
    <path class="st5" d="M 60.963 38.121 C 60.963 38.121 58.282 47.005 49.03 48.582 C 49.03 48.582 43.142 43.693 46.139 38.121 C 46.139 38.121 43.668 36.544 46.244 33.232 C 46.244 33.232 48.242 31.865 47.663 35.913 C 47.663 35.913 55.548 26.451 59.228 35.808 C 59.123 35.86 61.541 36.386 60.963 38.121 Z" style=""/>
    <path class="st8" d="M 55.391 60.883 C 54.76 60.568 54.129 59.411 55.917 59.937 C 58.124 60.62 57.441 61.356 56.968 61.356 C 56.442 61.356 55.864 61.198 55.391 60.883 Z" style=""/>
    <path class="st0" d="M 131.878 90.69 L 127.673 96.262 C 127.568 96.419 127.41 96.578 127.252 96.683 C 125.412 98.155 123.047 98.89 120.681 98.68 L 39.778 96.209 L 39.778 96.209 C 39.252 96.157 38.779 96.051 38.306 95.841 L 18.593 88.166 C 18.12 88.061 17.647 87.851 17.331 87.483 C 16.49 86.484 16.648 85.012 17.594 84.171 C 17.909 83.908 18.33 83.698 18.75 83.645 L 31.315 81.911 L 38.253 80.964 L 41.986 80.439 L 53.761 78.809 L 56.547 78.441 L 65.957 77.127 L 106.593 71.449 C 107.013 71.397 107.381 71.449 107.75 71.607 L 128.882 80.123 C 132.457 81.595 134.139 85.643 132.72 89.218 C 132.562 89.691 132.247 90.216 131.878 90.69 Z" style=""/>
    <path class="st8" d="M 121.417 91.215 L 105.436 89.481 L 97.026 94.054 C 97.026 94.107 123.52 102.728 121.417 91.215 Z" style=""/>
    <path class="st8" d="M 126.464 35.86 L 87.247 22.718 C 86.143 22.56 85.092 23.297 84.935 24.4 C 84.935 24.453 84.935 24.505 84.935 24.505 L 84.356 89.954 C 84.251 91.058 85.04 92.057 86.196 92.162 C 86.459 92.162 86.669 92.162 86.932 92.109 L 126.779 80.071 C 127.568 79.861 128.199 79.177 128.304 78.336 L 128.304 38.068 C 128.304 37.017 127.568 36.018 126.464 35.86 Z" style=""/>
    <path class="st3" d="M 120.524 96.262 C 119.052 96.788 111.061 99.206 97.026 94.054 C 97.446 94.159 118 100.099 121.102 94.159 C 121.417 93.529 121.523 92.792 121.364 92.057 C 119.157 79.808 115.582 67.822 110.746 56.309 L 116.318 55.942 C 120.051 59.779 128.724 88.955 128.724 88.955 C 128.724 88.955 130.038 93.265 121.259 95.999 C 120.997 96.104 120.786 96.209 120.524 96.262 Z" style=""/>
    <path class="st3" d="M 86.459 22.823 C 86.459 22.823 85.565 22.455 83.305 23.349 C 82.516 23.664 81.938 24.4 81.938 25.294 L 80.887 89.113 C 80.887 90.426 81.833 91.531 83.094 91.741 L 86.038 92.214 L 86.459 22.823 Z" style=""/>
  </g>
</svg>