<?xml version="1.0" encoding="utf-8"?>
<svg version="1.1" id="Layer_1" x="0px" y="0px" viewBox="0 0 221.6 144.6" style="enable-background:new 0 0 221.6 144.6;" xmlns="http://www.w3.org/2000/svg">
  <style type="text/css">
	.st0{fill:#EAEAEA;}
	.st1{fill:#E62132;}
	.st2{fill:#F3ADAD;}
	.st3{fill:#423B4C;}
	.st4{fill:#FFFFFF;}
	.st5{fill:#F7BAC0;}
	.st6{display:none;fill:#423B4C;}
	.st7{fill:#C4C4C4;}
	.st8{fill:#493F58;}
</style>
  <title>07</title>
  <g>
    <path class="st0" d="M 92.942 89.909 L 90.878 90.182 L 82.158 91.427 L 79.394 91.817 L 80.289 69.082 C 80.289 69.082 86.907 66.863 90.995 69.977 L 92.942 89.909 Z" style=""/>
    <path class="st1" d="M 82.158 91.427 L 74.255 92.518 L 73.632 89.715 C 75.695 88.936 81.029 90.999 82.158 91.427 Z" style=""/>
    <path class="st2" d="M 84.027 83.33 C 84.027 83.33 85.272 83.719 84.533 84.809 L 82.975 84.303 C 82.975 84.303 83.637 83.097 84.027 83.33 Z" style=""/>
    <path class="st2" d="M 84.221 85.276 C 84.221 85.276 83.637 86.367 82.82 86.367 C 82.002 86.367 81.418 85.433 81.418 85.433 L 83.131 84.965 L 84.221 85.276 Z" style=""/>
    <path class="st3" d="M 88.503 90.532 L 86.051 90.882 L 85.506 69.743 C 85.662 69.082 84.922 68.264 84.922 68.264 L 87.724 68.381 C 87.336 68.732 87.102 69.198 87.024 69.705 C 87.53 72.274 88.386 87.963 88.503 90.532 Z" style=""/>
    <path class="st4" d="M 84.027 62.892 L 83.832 64.41 L 88.776 68.848 L 88.776 69.354 L 87.063 68.459 L 85.623 68.575 L 82.392 71.301 L 80.756 68.498 C 80.756 68.498 81.301 62.308 84.027 62.892 Z" style=""/>
    <path class="st1" d="M 84.182 62.853 C 84.182 62.853 82.158 62.853 81.807 64.799 C 81.457 66.745 80.717 86.989 80.717 86.989 L 73.866 86.172 C 73.866 86.172 76.163 69.043 72.97 66.551 C 72.97 66.551 77.564 65.655 80.406 65.072 C 80.367 65.072 84.221 61.374 84.182 62.853 Z" style=""/>
    <path class="st1" d="M 99.91 88.936 L 90.917 90.182 C 88.114 83.447 87.374 75.972 88.814 68.809 L 94.343 64.021 C 94.343 64.021 96.562 64.021 96.64 64.682 C 96.64 64.682 95.316 79.282 97.457 82.551 C 98.664 84.498 99.521 86.678 99.91 88.936 Z" style=""/>
    <path class="st2" d="M 85.662 59.621 C 85.662 59.621 84.027 62.269 83.52 63.826 C 83.17 64.254 82.742 64.644 82.275 64.994 C 82.275 64.994 83.17 68.03 85.895 68.225 C 88.62 68.42 88.114 67.719 88.114 67.719 C 88.114 67.719 83.248 66.395 85.662 59.621 Z" style=""/>
    <path class="st5" d="M 75.345 90.61 C 75.345 90.61 77.72 91.039 78.459 90.765 C 78.459 90.765 84.883 90.532 84.377 89.481 C 84.377 89.481 85.895 90.026 85.623 88.624 C 85.623 88.624 87.491 88.119 85.506 86.989 C 84.299 86.289 81.769 85.316 81.457 85.471 C 81.457 85.471 83.676 85.471 85.078 86.211 C 85.233 86.289 85.428 86.289 85.623 86.211 C 86.051 86.016 86.635 85.666 84.961 84.809 C 83.52 84.109 81.885 83.914 80.328 84.303 C 80.289 84.343 80.211 84.343 80.211 84.42 C 79.978 84.693 79.121 85.783 78.927 86.795 L 76.357 86.405 C 76.318 86.367 73.009 89.442 75.345 90.61 Z" style=""/>
    <path class="st2" d="M 85.623 88.624 C 85.623 88.624 84.065 86.639 80.445 87.301 C 80.445 87.262 84.338 87.262 85.623 88.624 Z" style=""/>
    <path class="st2" d="M 84.416 89.52 C 84.221 89.442 82.275 88.157 80.639 88.936 C 81.924 88.819 83.208 89.014 84.416 89.52 Z" style=""/>
    <path class="st1" d="M 72.931 66.551 C 72.931 66.551 71.608 66.279 67.754 83.097 C 67.754 83.097 64.873 90.61 75.345 90.61 C 75.345 90.61 74.567 86.912 77.369 86.523 L 74.099 85.588 L 74.916 82.435 C 74.916 82.435 75.929 65.967 72.931 66.551 Z" style=""/>
    <path class="st1" d="M 76.318 86.405 C 76.318 86.405 73.515 87.495 74.605 90.61 C 74.605 90.61 72.892 87.495 76.318 86.405 Z" style=""/>
    <path class="st1" d="M 96.601 64.682 C 96.601 64.682 105.321 76.984 106.489 79.865 C 107.657 82.746 105.906 86.094 94.732 81.968 C 94.732 81.968 96.756 79.865 94.226 77.452 L 96.056 77.295 C 96.056 77.295 94.537 67.369 96.601 64.682 Z" style=""/>
    <path class="st1" d="M 103.92 77.413 L 96.095 77.295 C 96.095 77.295 101.545 77.841 103.92 77.413 Z" style=""/>
    <path class="st1" d="M 95.316 77.373 C 95.316 77.373 97.535 79.242 95.588 81.889 C 95.588 81.889 98.275 79.827 95.316 77.373 Z" style=""/>
    <path class="st5" d="M 81.73 85.433 C 81.73 85.433 81.107 85.393 79.861 86.484 C 79.861 86.484 80.834 85.276 81.73 85.433 Z" style=""/>
    <path class="st6" d="M 94.07 60.751 C 94.07 60.751 96.25 63.709 93.604 65.967 C 90.956 68.225 89.554 69.393 87.453 67.797 L 94.07 60.751 Z" style=""/>
    <path class="st3" d="M 88.854 68.537 L 87.102 66.474 C 86.674 65.967 86.713 65.189 87.219 64.76 L 92.046 60.634 C 92.552 60.206 93.33 60.244 93.759 60.751 L 95.511 62.814 C 95.939 63.32 95.9 64.099 95.394 64.527 L 90.528 68.653 C 90.022 69.082 89.282 69.043 88.854 68.537 Z" style=""/>
    <path class="st7" d="M 85.195 77.373 C 85.195 77.373 84.416 83.252 82.975 82.901 C 82.975 82.901 82.469 83.758 80.484 83.213 L 85.195 77.373 Z" style=""/>
    <path class="st0" d="M 84.767 78.192 C 84.767 78.192 83.987 83.097 82.664 82.668 C 82.664 82.668 82.703 83.953 80.522 83.252 L 67.598 80.099 C 67.598 80.099 66.741 79.787 66.975 78.308 C 66.975 78.269 84.922 77.218 84.767 78.192 Z" style=""/>
    <path class="st7" d="M 70.362 70.444 L 66.975 78.269 C 66.858 78.542 66.975 78.853 67.247 78.97 C 67.286 78.97 67.325 79.009 67.364 79.009 L 81.769 82.085 C 82.041 82.123 82.314 82.007 82.392 81.734 L 85.195 74.065 C 85.311 73.792 85.155 73.481 84.883 73.364 C 84.844 73.364 84.844 73.364 84.805 73.364 L 70.985 70.133 C 70.751 70.055 70.479 70.211 70.362 70.444 Z" style=""/>
    <path class="st5" d="M 94.265 77.452 C 94.265 77.452 91.657 77.373 89.243 73.636 C 89.048 73.364 88.776 73.169 88.464 73.131 C 87.92 73.053 86.752 72.936 84.455 72.663 C 84.455 72.663 83.793 72.508 82.314 76.089 C 82.314 76.089 81.963 77.335 83.287 76.712 C 83.287 76.712 82.43 78.113 83.014 78.386 C 83.598 78.659 84.338 78.113 84.338 78.113 C 84.338 78.113 84.61 78.931 85.506 78.192 C 85.506 78.192 86.362 80.41 90.256 80.06 L 94.849 82.007 C 94.81 81.968 97.029 79.749 94.265 77.452 Z" style=""/>
    <polygon class="st2" points="87.491 73.131 84.533 74.221 83.248 76.673 84.805 74.454" style=""/>
    <path class="st2" d="M 88.503 73.519 C 88.503 73.519 85.116 74.687 84.299 78.035 C 84.299 77.997 84.883 75.466 88.503 73.519 Z" style=""/>
    <path class="st2" d="M 88.892 75.155 C 88.892 75.155 87.336 75.739 85.506 77.802 C 85.506 77.802 86.907 75.972 87.881 77.295 C 88.309 77.88 88.814 78.386 89.36 78.853 L 87.92 76.945 C 87.881 76.945 86.985 76.401 88.892 75.155 Z" style=""/>
    <path class="st3" d="M 89.36 80.06 C 90.956 79.671 92.085 78.192 92.007 76.556 C 92.474 76.673 92.902 76.907 93.292 77.218 C 93.292 77.218 93.175 80.06 90.644 81.15 C 90.644 81.15 89.126 81.345 89.36 80.06 Z" style=""/>
    <path class="st3" d="M 85.662 56.974 L 88.231 53.666 C 88.231 53.666 89.321 50.862 93.992 53.276 C 98.664 55.69 98.703 57.48 98.119 58.376 C 97.535 59.271 96.212 61.023 94.927 60.517 C 93.642 60.011 86.051 58.843 86.051 58.843 L 85.662 56.974 Z" style=""/>
    <path class="st5" d="M 96.173 60.128 C 96.173 60.128 94.187 66.707 87.336 67.875 C 87.336 67.875 82.975 64.254 85.195 60.128 C 85.195 60.128 83.365 58.96 85.272 56.507 C 85.272 56.507 86.752 55.495 86.323 58.493 C 86.323 58.493 92.162 51.486 94.888 58.415 C 94.81 58.454 96.601 58.843 96.173 60.128 Z" style=""/>
    <path class="st8" d="M 92.046 76.984 C 91.579 76.751 91.112 75.894 92.436 76.284 C 94.07 76.79 93.564 77.335 93.214 77.335 C 92.825 77.335 92.396 77.218 92.046 76.984 Z" style=""/>
    <path class="st0" d="M 148.689 99.058 L 145.575 103.185 C 145.497 103.301 145.38 103.419 145.263 103.496 C 143.901 104.586 142.149 105.131 140.397 104.975 L 80.484 103.145 L 80.484 103.145 C 80.094 103.107 79.744 103.028 79.394 102.873 L 64.795 97.189 C 64.445 97.111 64.095 96.956 63.861 96.683 C 63.238 95.943 63.355 94.853 64.055 94.23 C 64.289 94.036 64.6 93.88 64.912 93.841 L 74.217 92.557 L 79.355 91.856 L 82.119 91.467 L 90.839 90.26 L 92.902 89.987 L 99.871 89.014 L 129.964 84.809 C 130.275 84.771 130.548 84.809 130.821 84.926 L 146.47 91.233 C 149.118 92.323 150.363 95.321 149.313 97.968 C 149.196 98.318 148.962 98.707 148.689 99.058 Z" style="fill: rgb(43, 45, 65);"/>
    <path class="st8" d="M 140.942 99.447 L 129.107 98.163 L 122.879 101.549 C 122.879 101.589 142.499 107.973 140.942 99.447 Z" style=""/>
    <path class="st8" d="M 144.68 58.454 L 115.637 48.721 C 114.82 48.604 114.041 49.15 113.925 49.967 C 113.925 50.006 113.925 50.044 113.925 50.044 L 113.496 98.513 C 113.419 99.331 114.003 100.07 114.859 100.148 C 115.054 100.148 115.209 100.148 115.404 100.109 L 144.913 91.194 C 145.497 91.039 145.965 90.532 146.042 89.909 L 146.042 60.089 C 146.042 59.31 145.497 58.571 144.68 58.454 Z" style=""/>
    <path class="st3" d="M 140.281 103.185 C 139.191 103.574 133.273 105.365 122.879 101.549 C 123.19 101.627 138.412 106.026 140.709 101.627 C 140.942 101.161 141.021 100.615 140.903 100.07 C 139.268 90.999 136.621 82.123 133.04 73.597 L 137.166 73.325 C 139.93 76.167 146.353 97.773 146.353 97.773 C 146.353 97.773 147.326 100.965 140.825 102.99 C 140.631 103.068 140.475 103.145 140.281 103.185 Z" style="fill: rgb(136, 136, 136);"/>
    <path class="st3" d="M 115.054 48.799 C 115.054 48.799 114.392 48.526 112.718 49.188 C 112.134 49.422 111.706 49.967 111.706 50.629 L 110.927 97.89 C 110.927 98.863 111.628 99.681 112.562 99.836 L 114.742 100.187 L 115.054 48.799 Z" style="fill: rgb(136, 136, 136);"/>
  </g>
</svg>