<?xml version="1.0" encoding="utf-8"?>
<svg viewBox="0 0 500 500" xmlns="http://www.w3.org/2000/svg" xmlns:bx="https://boxy-svg.com">
  <title>10</title>
  <ellipse class="a" cx="257.336" cy="355.566" rx="140.985" ry="24.229" style="fill: rgb(196, 196, 196);"/>
  <circle class="b" cx="447.37" cy="568.44" r="45.394" transform="matrix(0.905865, -0.423567, 0.423567, 0.905865, -485.431965, -122.186117)" style="fill: rgb(234, 234, 234);"/>
  <circle class="b" cx="454.13" cy="603.54" r="37.197" transform="matrix(0.905865, -0.423567, 0.423567, 0.905865, -494.655248, -90.038515)" style="fill: rgb(234, 234, 234);"/>
  <circle class="b" cx="459.09" cy="635.42" r="28.109" transform="matrix(0.960585, -0.277985, 0.277985, 0.960585, -436.63511, -162.913011)" style="fill: rgb(234, 234, 234);"/>
  <circle class="b" cx="566.13" cy="616.86" r="19.946" transform="matrix(0.14332, -0.989676, 0.989676, 0.14332, -324.365291, 759.449992)" style="fill: rgb(234, 234, 234);"/>
  <circle class="b" cx="560.14" cy="631.39" r="16.344" transform="matrix(0.14332, -0.989676, 0.989676, 0.14332, -348.327608, 776.730498)" style="fill: rgb(234, 234, 234);"/>
  <circle class="b" cx="554.27" cy="644.3" r="12.356" transform="matrix(0.295041, -0.955485, 0.955485, 0.295041, -432.518862, 674.839666)" style="fill: rgb(234, 234, 234);"/>
  <rect class="c" x="200.142" width="105.705" height="214.453" style="fill: rgb(66, 59, 76);" y="129.193" rx="2.31" ry="2.31"/>
  <rect class="d" x="203.205" y="139.913" width="99.61" height="190.224" rx="0.243" ry="0.243" style="fill: rgb(255, 255, 255);"/>
  <ellipse class="e" cx="253.003" cy="336.961" rx="6.268" ry="5.742" style="fill: rgb(92, 86, 104);"/>
  <ellipse class="e" cx="274.184" cy="134.935" rx="3.553" ry="3.256" style="fill: rgb(92, 86, 104);"/>
  <ellipse class="e" cx="283.478" cy="135.684" rx="2.125" ry="1.948" style="fill: rgb(92, 86, 104);"/>
  <rect class="f" x="211.053" y="147.835" width="19.146" height="19.146" style="fill: rgb(239, 63, 79);"/>
  <path class="g" d="M 327.601 176.638 C 327.515 178.379 330.005 184.003 330.005 184.003 C 330.005 184.003 322.207 187.482 320.429 188.264 C 320.969 184.629 317.21 178.188 317.21 178.188 Z" style="fill: rgb(252, 183, 136);"/>
  <path class="g" d="M 298.465 245.392 C 297.544 248.295 296.604 251.395 297.386 254.338 C 298.17 257.279 301.44 259.768 304.242 258.584 C 304.557 254.58 304.384 245.773 304.384 245.773 Z" style="fill: rgb(252, 183, 136);"/>
  <circle class="g" cx="321.526" cy="167.222" r="12.864" style="fill: rgb(252, 183, 136);"/>
  <path class="g" d="M 301.215 189.136 C 301.215 189.136 299.944 178.572 302.486 175.856 C 303.669 174.586 309.047 170.268 309.047 170.268 C 309.494 171.874 310.201 173.4 311.136 174.777 C 310.51 175.761 309.671 176.591 308.681 177.214 C 308.681 177.214 312.72 174.514 313.905 175.281 C 315.922 176.638 309.205 180.086 309.205 180.086 L 306.576 184.177 L 306.821 189.136 L 301.252 189.136 Z" style="fill: rgb(252, 183, 136);"/>
  <path class="h" d="M 303.93 221.995 C 300.579 228.143 297.996 234.68 296.237 241.456 C 295.811 242.679 296 244.034 296.74 245.096 C 297.519 245.701 298.488 246.01 299.474 245.964 L 303.354 246.243 C 303.868 246.322 304.392 246.264 304.872 246.07 C 305.313 245.785 305.659 245.37 305.864 244.885 C 307.092 242.322 307.905 239.577 308.264 236.757 C 308.952 233.91 308.78 230.928 307.776 228.176 C 306.56 225.53 306.61 220.885 303.913 221.995" style="fill: rgb(201, 21, 23);"/>
  <path class="i" d="M 320.049 359.205 L 320.049 359.119 L 320.311 356.175 L 319.752 356.175 C 317.217 356.304 314.678 356.198 312.163 355.863 L 309.953 353.478 L 308.11 353.373 C 308.292 352.407 307.43 351.568 306.472 351.772 C 305.177 353.103 303.793 354.34 302.33 355.479 C 300.466 356.818 291.433 359.1 291.433 359.1 L 291.433 359.1 C 291.433 359.1 289.535 358.926 290.596 361.885 C 291.661 364.842 301.252 363.939 301.252 363.939 L 306.838 363.051 C 311.115 363.112 315.394 362.916 319.647 362.46 C 321.979 361.954 320.378 359.691 320.049 359.205 Z" style="fill: rgb(230, 33, 50);"/>
  <path class="j" d="M 320.049 359.205 C 319.192 359.607 318.299 359.934 317.386 360.179 C 316.288 360.404 309.604 360.614 309.604 360.614 L 302.468 361.119 L 295.506 360.841 C 293.897 360.965 292.321 360.317 291.259 359.1 L 291.259 359.1 C 291.259 359.1 289.362 358.926 290.423 361.885 C 291.487 364.842 301.078 363.939 301.078 363.939 L 306.663 363.051 C 310.941 363.112 315.221 362.916 319.473 362.46 C 321.979 361.954 320.378 359.691 320.049 359.205 Z" style="fill: rgb(220, 230, 242);"/>
  <path class="i" d="M 327.725 364.425 C 327.725 364.06 327.601 363.714 327.534 363.451 C 327.272 362.405 326.697 360.943 326.697 360.943 C 326.697 360.943 323.511 361.866 322.033 359.673 L 322.033 359.673 C 321.284 358.473 316.706 355.791 314.167 358.04 C 313.381 359.145 312.428 360.126 311.344 360.943 C 309.769 362.169 308.258 363.476 306.821 364.86 C 306.14 365.805 305.223 366.552 304.155 367.018 C 303.899 367.127 303.631 367.207 303.354 367.263 C 301.215 367.698 311.067 372.486 315.541 371.388 C 315.541 371.388 322.902 367.906 327.843 367.749 C 328.019 366.643 327.978 365.517 327.725 364.425 Z" style="fill: rgb(230, 33, 50);"/>
  <path class="j" d="M 327.725 364.425 C 326.906 365.007 325.974 365.413 324.992 365.609 C 324.018 365.756 323.083 366.093 322.24 366.602 L 317.785 368.029 C 317.785 368.029 314.303 368.221 309.901 368.029 C 307.914 367.935 305.951 367.56 304.069 366.913 C 303.812 367.022 303.545 367.101 303.268 367.158 C 301.128 367.594 302.016 369.299 303.53 370.187 C 305.045 371.073 315.716 373.441 318.673 370.831 C 320.311 369.403 324.992 368.621 324.992 368.621 C 324.992 368.621 327.41 368.621 327.742 367.646 C 327.929 366.582 327.922 365.489 327.725 364.425 Z" style="fill: rgb(220, 230, 242);"/>
  <path class="k" d="M 310.039 240.013 C 313.435 241.265 314.34 245.615 314.739 249.255 C 316.009 260.934 320.465 344.723 320.484 353.391 C 320.484 357.934 310.144 357.185 305.463 352.678 C 305.463 352.678 305.549 349.474 305.723 346.342 C 306.212 337.048 306.14 332.54 305.411 314.543 C 305.039 307.517 304.107 300.531 302.624 293.657 L 303.721 244.799 Z" style="fill: rgb(73, 63, 88);"/>
  <path class="c" d="M 336.288 268.697 C 335.122 290.817 327.583 312.208 327.583 334.314 C 327.583 342.529 327.583 360.423 327.098 361.029 C 326.609 361.641 316.288 361.326 312.423 359.762 C 313.92 342.932 308.941 264.482 308.667 257.695 C 307.482 231.71 329.377 241.005 331.483 245.145 C 331.465 245.216 336.776 259.679 336.288 268.697 Z" style="fill: rgb(66, 59, 76);"/>
  <path class="i" d="M 315.175 188.945 C 313.095 190.546 311.479 192.674 310.491 195.106 C 302.974 210.771 302.852 229.41 303.634 246.781 C 303.634 247.582 331.78 247.462 334.111 245.946 C 336.146 244.507 337.223 242.068 336.913 239.595 C 336.913 237.712 335.085 203.947 334.006 193.122 C 333.659 189.64 332.37 181.965 328.786 181.6 C 327.044 181.425 318.254 187.098 315.14 188.927" style="fill: rgb(230, 33, 50);"/>
  <path class="h" d="M 324.312 194.48 C 319.089 195.054 315.976 200.656 312.562 204.593 L 308.214 209.516 C 304.974 203.304 307.862 195.054 308.959 187.797 C 308.959 187.797 302.798 186.752 299.387 188.144 C 299.076 193.504 298.308 196.742 298.222 197.855 C 297.733 205.548 296.48 212.392 297.909 219.943 C 298.008 220.774 298.32 221.565 298.815 222.242 C 300.083 223.72 300.136 223.495 304.297 222.608 C 315.088 220.31 331.761 210.873 332.423 206.522 C 332.441 206.575 336.149 193.156 324.312 194.48 Z" style="fill: rgb(201, 21, 23);"/>
  <path class="c" d="M 329.689 174.967 C 328.824 174.262 328.361 173.175 328.456 172.062 C 328.342 170.787 328.143 169.518 327.862 168.268 C 327.707 166.844 326.985 165.546 325.861 164.662 C 324.033 163.538 321.655 164.704 321.422 166.839 C 321.439 167.075 321.375 167.309 321.232 167.501 C 321.139 167.588 321.026 167.647 320.901 167.675 C 319.758 167.941 318.604 167.291 318.24 166.18 C 318.209 165.414 318.021 164.669 317.682 163.985 C 317.202 163.605 316.675 163.286 316.115 163.045 C 315.517 162.46 315.224 161.632 315.314 160.799 C 315.541 159.766 315.287 158.681 314.618 157.86 C 313.348 156.867 312.129 158.015 310.632 157.439 C 309.778 157.023 308.58 156.552 308.648 155.702 C 308.731 154.778 309.042 153.894 309.553 153.123 C 310.43 151.615 311.49 150.219 312.704 148.964 C 312.704 149.279 313.191 149.243 313.453 149.069 L 315.679 147.712 C 315.599 147.942 315.668 148.197 315.852 148.355 C 316.336 147.877 316.935 147.531 317.594 147.363 C 318.307 147.234 318.994 147.697 319.143 148.407 C 320.262 147.915 321.428 147.534 322.624 147.276 C 323.703 147.882 324.88 148.283 326.106 148.46 C 327.658 149.302 329.025 150.45 330.125 151.836 C 330.437 152.111 330.797 152.324 331.186 152.461 C 332.769 153.085 334.258 153.92 335.61 154.952 C 336.968 155.999 337.968 157.439 338.48 159.076 C 338.964 161.895 338.391 164.794 336.882 167.222 C 335.908 169.149 334.825 171.016 333.626 172.809 C 333.205 173.726 332.616 174.554 331.884 175.246 C 331.14 175.405 330.369 175.305 329.689 174.967 Z" style="fill: rgb(66, 59, 76);"/>
  <path d="M 482.667 210.325 L 483.844 213.712 L 487.43 213.785 L 484.572 215.952 L 485.611 219.385 L 482.667 217.336 L 479.723 219.385 L 480.762 215.952 L 477.904 213.785 L 481.49 213.712 Z" style="fill: rgb(255, 174, 0);" transform="matrix(-0.809017, 0.587785, -0.587785, -0.809017, 761.897357, 45.206944)" bx:shape="star 482.667 215.333 5.008 5.008 0.4 5 1@dfcf6a82"/>
  <rect class="f" x="240.993" y="162.651" width="55.679" height="3.392" style="fill: rgb(239, 63, 79);"/>
  <path d="M 482.667 210.325 L 483.844 213.712 L 487.43 213.785 L 484.572 215.952 L 485.611 219.385 L 482.667 217.336 L 479.723 219.385 L 480.762 215.952 L 477.904 213.785 L 481.49 213.712 Z" style="fill: rgb(255, 174, 0);" transform="matrix(-0.809017, 0.587785, -0.587785, -0.809017, 771.489642, 45.30003)" bx:shape="star 482.667 215.333 5.008 5.008 0.4 5 1@dfcf6a82"/>
  <path d="M 482.667 210.325 L 483.844 213.712 L 487.43 213.785 L 484.572 215.952 L 485.611 219.385 L 482.667 217.336 L 479.723 219.385 L 480.762 215.952 L 477.904 213.785 L 481.49 213.712 Z" style="fill: rgb(255, 174, 0);" transform="matrix(-0.809017, 0.587785, -0.587785, -0.809017, 781.268084, 45.393143)" bx:shape="star 482.667 215.333 5.008 5.008 0.4 5 1@dfcf6a82"/>
  <path d="M 482.667 210.325 L 483.844 213.712 L 487.43 213.785 L 484.572 215.952 L 485.611 219.385 L 482.667 217.336 L 479.723 219.385 L 480.762 215.952 L 477.904 213.785 L 481.49 213.712 Z" style="fill: rgb(255, 174, 0);" transform="matrix(-0.809017, 0.587785, -0.587785, -0.809017, 790.86043, 45.486229)" bx:shape="star 482.667 215.333 5.008 5.008 0.4 5 1@dfcf6a82"/>
  <path d="M 482.667 210.325 L 483.844 213.712 L 487.43 213.785 L 484.572 215.952 L 485.611 219.385 L 482.667 217.336 L 479.723 219.385 L 480.762 215.952 L 477.904 213.785 L 481.49 213.712 Z" style="fill: rgb(255, 174, 0);" transform="matrix(-0.809017, 0.587785, -0.587785, -0.809017, 800.732257, 45.48618)" bx:shape="star 482.667 215.333 5.008 5.008 0.4 5 1@dfcf6a82"/>
  <rect class="f" x="211.053" y="173.393" width="19.146" height="19.146" style="fill: rgb(239, 63, 79);"/>
  <path d="M 482.667 210.325 L 483.844 213.712 L 487.43 213.785 L 484.572 215.952 L 485.611 219.385 L 482.667 217.336 L 479.723 219.385 L 480.762 215.952 L 477.904 213.785 L 481.49 213.712 Z" style="fill: rgb(255, 174, 0);" transform="matrix(-0.809017, 0.587785, -0.587785, -0.809017, 761.897357, 70.764977)" bx:shape="star 482.667 215.333 5.008 5.008 0.4 5 1@dfcf6a82"/>
  <rect class="f" x="240.993" y="188.21" width="55.679" height="3.392" style="fill: rgb(239, 63, 79);"/>
  <path d="M 482.667 210.325 L 483.844 213.712 L 487.43 213.785 L 484.572 215.952 L 485.611 219.385 L 482.667 217.336 L 479.723 219.385 L 480.762 215.952 L 477.904 213.785 L 481.49 213.712 Z" style="fill: rgb(255, 174, 0);" transform="matrix(-0.809017, 0.587785, -0.587785, -0.809017, 771.489642, 70.858071)" bx:shape="star 482.667 215.333 5.008 5.008 0.4 5 1@dfcf6a82"/>
  <path d="M 482.667 210.325 L 483.844 213.712 L 487.43 213.785 L 484.572 215.952 L 485.611 219.385 L 482.667 217.336 L 479.723 219.385 L 480.762 215.952 L 477.904 213.785 L 481.49 213.712 Z" style="fill: rgb(255, 174, 0);" transform="matrix(-0.809017, 0.587785, -0.587785, -0.809017, 781.268084, 70.95118)" bx:shape="star 482.667 215.333 5.008 5.008 0.4 5 1@dfcf6a82"/>
  <path d="M 482.667 210.325 L 483.844 213.712 L 487.43 213.785 L 484.572 215.952 L 485.611 219.385 L 482.667 217.336 L 479.723 219.385 L 480.762 215.952 L 477.904 213.785 L 481.49 213.712 Z" style="fill: rgb(255, 174, 0);" transform="matrix(-0.809017, 0.587785, -0.587785, -0.809017, 790.86043, 71.044266)" bx:shape="star 482.667 215.333 5.008 5.008 0.4 5 1@dfcf6a82"/>
  <path d="M 482.667 210.325 L 483.844 213.712 L 487.43 213.785 L 484.572 215.952 L 485.611 219.385 L 482.667 217.336 L 479.723 219.385 L 480.762 215.952 L 477.904 213.785 L 481.49 213.712 Z" style="fill: rgb(255, 174, 0);" transform="matrix(-0.809017, 0.587785, -0.587785, -0.809017, 800.732257, 71.04422)" bx:shape="star 482.667 215.333 5.008 5.008 0.4 5 1@dfcf6a82"/>
  <rect class="f" x="211.053" y="198.164" width="19.146" height="19.146" style="fill: rgb(239, 63, 79);"/>
  <path d="M 482.667 210.325 L 483.844 213.712 L 487.43 213.785 L 484.572 215.952 L 485.611 219.385 L 482.667 217.336 L 479.723 219.385 L 480.762 215.952 L 477.904 213.785 L 481.49 213.712 Z" style="fill: rgb(255, 174, 0);" transform="matrix(-0.809017, 0.587785, -0.587785, -0.809017, 761.897784, 95.536591)" bx:shape="star 482.667 215.333 5.008 5.008 0.4 5 1@dfcf6a82"/>
  <rect class="f" x="240.993" y="212.981" width="55.679" height="3.392" style="fill: rgb(239, 63, 79);"/>
  <path d="M 482.667 210.325 L 483.844 213.712 L 487.43 213.785 L 484.572 215.952 L 485.611 219.385 L 482.667 217.336 L 479.723 219.385 L 480.762 215.952 L 477.904 213.785 L 481.49 213.712 Z" style="fill: rgb(255, 174, 0);" transform="matrix(-0.809017, 0.587785, -0.587785, -0.809017, 771.490069, 95.629708)" bx:shape="star 482.667 215.333 5.008 5.008 0.4 5 1@dfcf6a82"/>
  <path d="M 482.667 210.325 L 483.844 213.712 L 487.43 213.785 L 484.572 215.952 L 485.611 219.385 L 482.667 217.336 L 479.723 219.385 L 480.762 215.952 L 477.904 213.785 L 481.49 213.712 Z" style="fill: rgb(255, 174, 0);" transform="matrix(-0.809017, 0.587785, -0.587785, -0.809017, 781.268512, 95.722817)" bx:shape="star 482.667 215.333 5.008 5.008 0.4 5 1@dfcf6a82"/>
  <path d="M 482.667 210.325 L 483.844 213.712 L 487.43 213.785 L 484.572 215.952 L 485.611 219.385 L 482.667 217.336 L 479.723 219.385 L 480.762 215.952 L 477.904 213.785 L 481.49 213.712 Z" style="fill: rgb(255, 174, 0);" transform="matrix(-0.809017, 0.587785, -0.587785, -0.809017, 790.860797, 95.81588)" bx:shape="star 482.667 215.333 5.008 5.008 0.4 5 1@dfcf6a82"/>
  <path d="M 482.667 210.325 L 483.844 213.712 L 487.43 213.785 L 484.572 215.952 L 485.611 219.385 L 482.667 217.336 L 479.723 219.385 L 480.762 215.952 L 477.904 213.785 L 481.49 213.712 Z" style="fill: rgb(255, 174, 0);" transform="matrix(-0.809017, 0.587785, -0.587785, -0.809017, 800.732623, 95.815842)" bx:shape="star 482.667 215.333 5.008 5.008 0.4 5 1@dfcf6a82"/>
  <rect class="f" x="211.053" y="222.543" width="19.146" height="19.146" style="fill: rgb(239, 63, 79);"/>
  <path d="M 482.667 210.325 L 483.844 213.712 L 487.43 213.785 L 484.572 215.952 L 485.611 219.385 L 482.667 217.336 L 479.723 219.385 L 480.762 215.952 L 477.904 213.785 L 481.49 213.712 Z" style="fill: rgb(255, 174, 0);" transform="matrix(-0.809017, 0.587785, -0.587785, -0.809017, 761.897784, 119.915016)" bx:shape="star 482.667 215.333 5.008 5.008 0.4 5 1@dfcf6a82"/>
  <rect class="f" x="240.993" y="237.359" width="55.679" height="3.392" style="fill: rgb(239, 63, 79);"/>
  <path d="M 482.667 210.325 L 483.844 213.712 L 487.43 213.785 L 484.572 215.952 L 485.611 219.385 L 482.667 217.336 L 479.723 219.385 L 480.762 215.952 L 477.904 213.785 L 481.49 213.712 Z" style="fill: rgb(255, 174, 0);" transform="matrix(-0.809017, 0.587785, -0.587785, -0.809017, 771.490069, 120.008118)" bx:shape="star 482.667 215.333 5.008 5.008 0.4 5 1@dfcf6a82"/>
  <path d="M 482.667 210.325 L 483.844 213.712 L 487.43 213.785 L 484.572 215.952 L 485.611 219.385 L 482.667 217.336 L 479.723 219.385 L 480.762 215.952 L 477.904 213.785 L 481.49 213.712 Z" style="fill: rgb(255, 174, 0);" transform="matrix(-0.809017, 0.587785, -0.587785, -0.809017, 781.268512, 120.101227)" bx:shape="star 482.667 215.333 5.008 5.008 0.4 5 1@dfcf6a82"/>
  <path d="M 482.667 210.325 L 483.844 213.712 L 487.43 213.785 L 484.572 215.952 L 485.611 219.385 L 482.667 217.336 L 479.723 219.385 L 480.762 215.952 L 477.904 213.785 L 481.49 213.712 Z" style="fill: rgb(255, 174, 0);" transform="matrix(-0.809017, 0.587785, -0.587785, -0.809017, 790.860797, 120.194298)" bx:shape="star 482.667 215.333 5.008 5.008 0.4 5 1@dfcf6a82"/>
  <path d="M 482.667 210.325 L 483.844 213.712 L 487.43 213.785 L 484.572 215.952 L 485.611 219.385 L 482.667 217.336 L 479.723 219.385 L 480.762 215.952 L 477.904 213.785 L 481.49 213.712 Z" style="fill: rgb(255, 174, 0);" transform="matrix(-0.809017, 0.587785, -0.587785, -0.809017, 800.732623, 120.194245)" bx:shape="star 482.667 215.333 5.008 5.008 0.4 5 1@dfcf6a82"/>
  <rect class="f" x="211.053" y="248.101" width="19.146" height="19.146" style="fill: rgb(239, 63, 79);"/>
  <path d="M 482.667 210.325 L 483.844 213.712 L 487.43 213.785 L 484.572 215.952 L 485.611 219.385 L 482.667 217.336 L 479.723 219.385 L 480.762 215.952 L 477.904 213.785 L 481.49 213.712 Z" style="fill: rgb(255, 174, 0);" transform="matrix(-0.809017, 0.587785, -0.587785, -0.809017, 761.89815, 145.47303)" bx:shape="star 482.667 215.333 5.008 5.008 0.4 5 1@dfcf6a82"/>
  <rect class="f" x="240.993" y="262.919" width="55.679" height="3.392" style="fill: rgb(239, 63, 79);"/>
  <path d="M 482.667 210.325 L 483.844 213.712 L 487.43 213.785 L 484.572 215.952 L 485.611 219.385 L 482.667 217.336 L 479.723 219.385 L 480.762 215.952 L 477.904 213.785 L 481.49 213.712 Z" style="fill: rgb(255, 174, 0);" transform="matrix(-0.809017, 0.587785, -0.587785, -0.809017, 771.490313, 145.566139)" bx:shape="star 482.667 215.333 5.008 5.008 0.4 5 1@dfcf6a82"/>
  <path d="M 482.667 210.325 L 483.844 213.712 L 487.43 213.785 L 484.572 215.952 L 485.611 219.385 L 482.667 217.336 L 479.723 219.385 L 480.762 215.952 L 477.904 213.785 L 481.49 213.712 Z" style="fill: rgb(255, 174, 0);" transform="matrix(-0.809017, 0.587785, -0.587785, -0.809017, 781.268878, 145.659233)" bx:shape="star 482.667 215.333 5.008 5.008 0.4 5 1@dfcf6a82"/>
  <path d="M 482.667 210.325 L 483.844 213.712 L 487.43 213.785 L 484.572 215.952 L 485.611 219.385 L 482.667 217.336 L 479.723 219.385 L 480.762 215.952 L 477.904 213.785 L 481.49 213.712 Z" style="fill: rgb(255, 174, 0);" transform="matrix(-0.809017, 0.587785, -0.587785, -0.809017, 790.861163, 145.752358)" bx:shape="star 482.667 215.333 5.008 5.008 0.4 5 1@dfcf6a82"/>
  <path d="M 482.667 210.325 L 483.844 213.712 L 487.43 213.785 L 484.572 215.952 L 485.611 219.385 L 482.667 217.336 L 479.723 219.385 L 480.762 215.952 L 477.904 213.785 L 481.49 213.712 Z" style="fill: rgb(255, 174, 0);" transform="matrix(-0.809017, 0.587785, -0.587785, -0.809017, 800.73305, 145.752327)" bx:shape="star 482.667 215.333 5.008 5.008 0.4 5 1@dfcf6a82"/>
  <rect class="f" x="211.053" y="274.643" width="19.146" height="19.146" style="fill: rgb(239, 63, 79);"/>
  <path d="M 482.667 210.325 L 483.844 213.712 L 487.43 213.785 L 484.572 215.952 L 485.611 219.385 L 482.667 217.336 L 479.723 219.385 L 480.762 215.952 L 477.904 213.785 L 481.49 213.712 Z" style="fill: rgb(255, 174, 0);" transform="matrix(-0.809017, 0.587785, -0.587785, -0.809017, 761.89815, 172.014092)" bx:shape="star 482.667 215.333 5.008 5.008 0.4 5 1@dfcf6a82"/>
  <rect class="f" x="240.993" y="289.461" width="55.679" height="3.392" style="fill: rgb(239, 63, 79);"/>
  <path d="M 482.667 210.325 L 483.844 213.712 L 487.43 213.785 L 484.572 215.952 L 485.611 219.385 L 482.667 217.336 L 479.723 219.385 L 480.762 215.952 L 477.904 213.785 L 481.49 213.712 Z" style="fill: rgb(255, 174, 0);" transform="matrix(-0.809017, 0.587785, -0.587785, -0.809017, 771.490313, 172.107155)" bx:shape="star 482.667 215.333 5.008 5.008 0.4 5 1@dfcf6a82"/>
  <path d="M 482.667 210.325 L 483.844 213.712 L 487.43 213.785 L 484.572 215.952 L 485.611 219.385 L 482.667 217.336 L 479.723 219.385 L 480.762 215.952 L 477.904 213.785 L 481.49 213.712 Z" style="fill: rgb(255, 174, 0);" transform="matrix(-0.809017, 0.587785, -0.587785, -0.809017, 781.268878, 172.200264)" bx:shape="star 482.667 215.333 5.008 5.008 0.4 5 1@dfcf6a82"/>
  <path d="M 482.667 210.325 L 483.844 213.712 L 487.43 213.785 L 484.572 215.952 L 485.611 219.385 L 482.667 217.336 L 479.723 219.385 L 480.762 215.952 L 477.904 213.785 L 481.49 213.712 Z" style="fill: rgb(255, 174, 0);" transform="matrix(-0.809017, 0.587785, -0.587785, -0.809017, 790.861163, 172.293358)" bx:shape="star 482.667 215.333 5.008 5.008 0.4 5 1@dfcf6a82"/>
  <path d="M 482.667 210.325 L 483.844 213.712 L 487.43 213.785 L 484.572 215.952 L 485.611 219.385 L 482.667 217.336 L 479.723 219.385 L 480.762 215.952 L 477.904 213.785 L 481.49 213.712 Z" style="fill: rgb(255, 174, 0);" transform="matrix(-0.809017, 0.587785, -0.587785, -0.809017, 800.73305, 172.293328)" bx:shape="star 482.667 215.333 5.008 5.008 0.4 5 1@dfcf6a82"/>
  <rect class="f" x="211.053" y="299.612" width="19.146" height="19.146" style="fill: rgb(239, 63, 79);"/>
  <path d="M 482.667 210.325 L 483.844 213.712 L 487.43 213.785 L 484.572 215.952 L 485.611 219.385 L 482.667 217.336 L 479.723 219.385 L 480.762 215.952 L 477.904 213.785 L 481.49 213.712 Z" style="fill: rgb(255, 174, 0);" transform="matrix(-0.809017, 0.587785, -0.587785, -0.809017, 761.898333, 196.982308)" bx:shape="star 482.667 215.333 5.008 5.008 0.4 5 1@dfcf6a82"/>
  <rect class="f" x="240.993" y="314.428" width="55.679" height="3.392" style="fill: rgb(239, 63, 79);"/>
  <path d="M 482.667 210.325 L 483.844 213.712 L 487.43 213.785 L 484.572 215.952 L 485.611 219.385 L 482.667 217.336 L 479.723 219.385 L 480.762 215.952 L 477.904 213.785 L 481.49 213.712 Z" style="fill: rgb(255, 174, 0);" transform="matrix(-0.809017, 0.587785, -0.587785, -0.809017, 771.49068, 197.075417)" bx:shape="star 482.667 215.333 5.008 5.008 0.4 5 1@dfcf6a82"/>
  <path d="M 482.667 210.325 L 483.844 213.712 L 487.43 213.785 L 484.572 215.952 L 485.611 219.385 L 482.667 217.336 L 479.723 219.385 L 480.762 215.952 L 477.904 213.785 L 481.49 213.712 Z" style="fill: rgb(255, 174, 0);" transform="matrix(-0.809017, 0.587785, -0.587785, -0.809017, 781.269244, 197.168526)" bx:shape="star 482.667 215.333 5.008 5.008 0.4 5 1@dfcf6a82"/>
  <path d="M 482.667 210.325 L 483.844 213.712 L 487.43 213.785 L 484.572 215.952 L 485.611 219.385 L 482.667 217.336 L 479.723 219.385 L 480.762 215.952 L 477.904 213.785 L 481.49 213.712 Z" style="fill: rgb(255, 174, 0);" transform="matrix(-0.809017, 0.587785, -0.587785, -0.809017, 790.861651, 197.261589)" bx:shape="star 482.667 215.333 5.008 5.008 0.4 5 1@dfcf6a82"/>
  <path d="M 482.667 210.325 L 483.844 213.712 L 487.43 213.785 L 484.572 215.952 L 485.611 219.385 L 482.667 217.336 L 479.723 219.385 L 480.762 215.952 L 477.904 213.785 L 481.49 213.712 Z" style="fill: rgb(255, 174, 0);" transform="matrix(-0.809017, 0.587785, -0.587785, -0.809017, 800.733416, 197.261528)" bx:shape="star 482.667 215.333 5.008 5.008 0.4 5 1@dfcf6a82"/>
  <title>10</title>
</svg>