<?xml version="1.0" encoding="utf-8"?>
<svg viewBox="0 0 162.68 143.98" xmlns="http://www.w3.org/2000/svg" xmlns:bx="https://boxy-svg.com">
  <defs>
    <style>.a{fill:#c4c4c4;}.b{fill:#eaeaea;}.c{fill:#423b4c;}.d{fill:#ef3f4f;}.e{fill:#5c5668;}.f{fill:#fff;}.g{fill:#fcb788;}.h{fill:#c91517;}.i{fill:#e62132;}.j{fill:#dce6f2;}.k{fill:#493f58;}</style>
  </defs>
  <title>10</title>
  <ellipse class="a" cx="80.319" cy="107.138" rx="47.041" ry="8.084" style="fill: rgb(43, 45, 65);"/>
  <circle class="b" cx="447.37" cy="568.44" r="15.146" transform="matrix(0.905865, -0.423567, 0.423567, 0.905865, -597.988022, -269.122337)" style="fill: rgb(66, 69, 100);"/>
  <circle class="b" cx="454.13" cy="603.54" r="12.411" transform="matrix(0.905865, -0.423567, 0.423567, 0.905865, -615.052468, -277.674909)" style="fill: rgb(66, 69, 100);"/>
  <circle class="b" cx="459.09" cy="635.42" r="9.379" transform="matrix(0.960585, -0.277985, 0.277985, 0.960585, -562.783379, -387.536636)" style="fill: rgb(66, 69, 100);"/>
  <circle class="b" cx="566.13" cy="616.86" r="6.655" transform="matrix(0.14332, -0.989676, 0.989676, 0.14332, -574.630522, 556.327395)" style="fill: rgb(66, 69, 100);"/>
  <circle class="b" cx="560.14" cy="631.39" r="5.453" transform="matrix(0.14332, -0.989676, 0.989676, 0.14332, -591.635654, 556.755432)" style="fill: rgb(66, 69, 100);"/>
  <circle class="b" cx="554.27" cy="644.3" r="4.123" transform="matrix(0.295041, -0.955485, 0.955485, 0.295041, -669.038119, 439.890362)" style="fill: rgb(66, 69, 100);"/>
  <rect class="c" x="61.236" width="35.269" height="71.554" style="" y="31.606" rx="2.31" ry="2.31"/>
  <rect class="d" x="62.258" y="35.183" width="33.236" height="63.47" rx="0.243" ry="0.243" style="fill: rgb(255, 255, 255);"/>
  <ellipse class="e" cx="78.873" cy="100.93" rx="2.091" ry="1.916" style=""/>
  <ellipse class="e" cx="85.941" cy="33.522" rx="1.185" ry="1.086" style=""/>
  <ellipse class="e" cx="89.042" cy="33.772" rx="0.709" ry="0.65" style=""/>
  <rect class="f" x="64.877" y="37.826" width="6.388" height="6.388" style="fill: rgb(239, 63, 79);"/>
  <path class="g" d="M 103.764 47.437 C 103.735 48.018 104.566 49.894 104.566 49.894 C 104.566 49.894 101.964 51.055 101.371 51.316 C 101.551 50.103 100.297 47.954 100.297 47.954 Z" style=""/>
  <path class="g" d="M 94.042 70.377 C 93.735 71.346 93.421 72.38 93.682 73.362 C 93.944 74.343 95.035 75.174 95.97 74.779 C 96.075 73.443 96.017 70.504 96.017 70.504 Z" style=""/>
  <circle class="g" cx="101.737" cy="44.295" r="4.292" style=""/>
  <path class="g" d="M 94.96 51.607 C 94.96 51.607 94.536 48.082 95.384 47.176 C 95.779 46.752 97.573 45.311 97.573 45.311 C 97.722 45.847 97.958 46.356 98.27 46.816 C 98.061 47.144 97.781 47.421 97.451 47.629 C 97.451 47.629 98.799 46.728 99.194 46.984 C 99.867 47.437 97.626 48.587 97.626 48.587 L 96.749 49.952 L 96.83 51.607 L 94.972 51.607 Z" style=""/>
  <path class="h" d="M 95.866 62.571 C 94.748 64.622 93.886 66.803 93.299 69.064 C 93.157 69.472 93.22 69.924 93.467 70.278 C 93.727 70.48 94.05 70.583 94.379 70.568 L 95.674 70.661 C 95.845 70.688 96.02 70.668 96.18 70.603 C 96.327 70.508 96.443 70.37 96.511 70.208 C 96.921 69.353 97.192 68.437 97.312 67.496 C 97.541 66.546 97.484 65.551 97.149 64.633 C 96.743 63.75 96.76 62.2 95.86 62.571" style=""/>
  <path class="i" d="M 101.244 108.352 L 101.244 108.323 L 101.331 107.341 L 101.145 107.341 C 100.299 107.384 99.452 107.349 98.613 107.237 L 97.875 106.441 L 97.26 106.406 C 97.321 106.084 97.034 105.804 96.714 105.872 C 96.282 106.316 95.82 106.729 95.332 107.109 C 94.71 107.556 91.696 108.317 91.696 108.317 L 91.696 108.317 C 91.696 108.317 91.063 108.259 91.417 109.246 C 91.772 110.233 94.972 109.931 94.972 109.931 L 96.836 109.635 C 98.263 109.656 99.691 109.59 101.11 109.438 C 101.888 109.269 101.354 108.514 101.244 108.352 Z" style=""/>
  <path class="j" d="M 101.244 108.352 C 100.958 108.486 100.66 108.595 100.355 108.677 C 99.989 108.752 97.759 108.822 97.759 108.822 L 95.378 108.991 L 93.055 108.898 C 92.518 108.939 91.992 108.723 91.638 108.317 L 91.638 108.317 C 91.638 108.317 91.005 108.259 91.359 109.246 C 91.714 110.233 94.914 109.931 94.914 109.931 L 96.778 109.635 C 98.205 109.656 99.633 109.59 101.052 109.438 C 101.888 109.269 101.354 108.514 101.244 108.352 Z" style=""/>
  <path class="i" d="M 103.805 110.094 C 103.805 109.972 103.764 109.856 103.741 109.769 C 103.654 109.42 103.462 108.932 103.462 108.932 C 103.462 108.932 102.399 109.24 101.906 108.508 L 101.906 108.508 C 101.656 108.108 100.129 107.213 99.281 107.963 C 99.019 108.332 98.701 108.659 98.34 108.932 C 97.814 109.341 97.31 109.777 96.83 110.239 C 96.603 110.554 96.297 110.803 95.941 110.959 C 95.855 110.995 95.766 111.022 95.674 111.041 C 94.96 111.186 98.247 112.783 99.74 112.417 C 99.74 112.417 102.196 111.255 103.845 111.203 C 103.903 110.834 103.889 110.458 103.805 110.094 Z" style=""/>
  <path class="j" d="M 103.805 110.094 C 103.532 110.288 103.221 110.423 102.893 110.489 C 102.568 110.538 102.256 110.65 101.975 110.82 L 100.489 111.296 C 100.489 111.296 99.327 111.36 97.858 111.296 C 97.195 111.265 96.54 111.14 95.912 110.924 C 95.826 110.96 95.737 110.987 95.645 111.006 C 94.931 111.151 95.227 111.72 95.732 112.016 C 96.238 112.312 99.798 113.102 100.785 112.231 C 101.331 111.755 102.893 111.494 102.893 111.494 C 102.893 111.494 103.7 111.494 103.811 111.168 C 103.873 110.813 103.871 110.449 103.805 110.094 Z" style=""/>
  <path class="k" d="M 97.904 68.582 C 99.037 69 99.339 70.452 99.472 71.666 C 99.896 75.563 101.383 103.52 101.389 106.412 C 101.389 107.928 97.939 107.678 96.377 106.174 C 96.377 106.174 96.406 105.105 96.464 104.06 C 96.627 100.959 96.603 99.455 96.36 93.45 C 96.236 91.106 95.925 88.775 95.43 86.481 L 95.796 70.179 Z" style=""/>
  <path class="c" d="M 106.662 78.153 C 106.273 85.534 103.758 92.671 103.758 100.047 C 103.758 102.788 103.758 108.758 103.596 108.961 C 103.433 109.165 99.989 109.06 98.7 108.538 C 99.199 102.922 97.538 76.747 97.446 74.482 C 97.051 65.812 104.356 68.913 105.059 70.295 C 105.053 70.318 106.825 75.144 106.662 78.153 Z" style=""/>
  <path class="i" d="M 99.618 51.543 C 98.924 52.077 98.384 52.787 98.055 53.599 C 95.547 58.825 95.506 65.045 95.767 70.841 C 95.767 71.108 105.158 71.068 105.936 70.562 C 106.615 70.082 106.974 69.268 106.871 68.443 C 106.871 67.815 106.261 56.549 105.901 52.937 C 105.785 51.775 105.355 49.214 104.159 49.092 C 103.578 49.034 100.645 50.927 99.606 51.537" style=""/>
  <path class="h" d="M 102.666 53.39 C 100.924 53.581 99.885 55.451 98.746 56.764 L 97.295 58.407 C 96.214 56.334 97.178 53.581 97.544 51.16 C 97.544 51.16 95.488 50.811 94.35 51.276 C 94.246 53.064 93.99 54.145 93.961 54.516 C 93.798 57.083 93.38 59.366 93.857 61.886 C 93.89 62.163 93.994 62.427 94.159 62.653 C 94.582 63.146 94.6 63.071 95.988 62.775 C 99.589 62.008 105.152 58.86 105.373 57.408 C 105.379 57.426 106.616 52.948 102.666 53.39 Z" style=""/>
  <path class="c" d="M 104.461 46.879 C 104.172 46.644 104.017 46.281 104.049 45.91 C 104.011 45.484 103.945 45.061 103.851 44.644 C 103.799 44.169 103.558 43.736 103.183 43.441 C 102.573 43.066 101.78 43.455 101.702 44.167 C 101.708 44.246 101.686 44.324 101.639 44.388 C 101.608 44.417 101.57 44.437 101.528 44.446 C 101.147 44.535 100.762 44.318 100.64 43.947 C 100.63 43.692 100.567 43.443 100.454 43.215 C 100.294 43.088 100.118 42.982 99.931 42.901 C 99.732 42.706 99.634 42.43 99.664 42.152 C 99.74 41.807 99.655 41.445 99.432 41.171 C 99.008 40.84 98.601 41.223 98.102 41.031 C 97.817 40.892 97.417 40.735 97.44 40.451 C 97.468 40.143 97.571 39.848 97.742 39.591 C 98.035 39.088 98.388 38.622 98.793 38.203 C 98.793 38.308 98.956 38.296 99.043 38.238 L 99.786 37.785 C 99.759 37.862 99.782 37.947 99.844 38 C 100.005 37.84 100.205 37.725 100.425 37.669 C 100.663 37.626 100.892 37.78 100.942 38.017 C 101.315 37.853 101.704 37.726 102.103 37.64 C 102.463 37.842 102.856 37.976 103.265 38.035 C 103.783 38.316 104.239 38.699 104.606 39.161 C 104.71 39.253 104.83 39.324 104.96 39.37 C 105.488 39.578 105.985 39.857 106.436 40.201 C 106.889 40.55 107.223 41.031 107.394 41.577 C 107.555 42.518 107.364 43.485 106.86 44.295 C 106.536 44.938 106.174 45.561 105.774 46.159 C 105.634 46.465 105.437 46.741 105.193 46.972 C 104.945 47.025 104.687 46.992 104.461 46.879 Z" style=""/>
  <path d="M 482.667 213.662 L 483.06 214.792 L 484.256 214.817 L 483.303 215.54 L 483.649 216.685 L 482.667 216.001 L 481.685 216.685 L 482.031 215.54 L 481.078 214.817 L 482.274 214.792 Z" style="fill: rgb(255, 174, 0);" transform="matrix(-0.809017, 0.587785, -0.587785, -0.809017, 593.205943, -69.378624)" bx:shape="star 482.667 215.333 1.671 1.671 0.4 5 1@5e4f2da5"/>
  <rect class="f" x="74.866" y="42.77" width="18.578" height="1.132" style="fill: rgb(239, 63, 79);"/>
  <path d="M 482.667 213.662 L 483.06 214.792 L 484.256 214.817 L 483.303 215.54 L 483.649 216.685 L 482.667 216.001 L 481.685 216.685 L 482.031 215.54 L 481.078 214.817 L 482.274 214.792 Z" style="fill: rgb(255, 174, 0);" transform="matrix(-0.809017, 0.587785, -0.587785, -0.809017, 596.406505, -69.347565)" bx:shape="star 482.667 215.333 1.671 1.671 0.4 5 1@5e4f2da5"/>
  <path d="M 482.667 213.662 L 483.06 214.792 L 484.256 214.817 L 483.303 215.54 L 483.649 216.685 L 482.667 216.001 L 481.685 216.685 L 482.031 215.54 L 481.078 214.817 L 482.274 214.792 Z" style="fill: rgb(255, 174, 0);" transform="matrix(-0.809017, 0.587785, -0.587785, -0.809017, 599.6692, -69.316498)" bx:shape="star 482.667 215.333 1.671 1.671 0.4 5 1@5e4f2da5"/>
  <path d="M 482.667 213.662 L 483.06 214.792 L 484.256 214.817 L 483.303 215.54 L 483.649 216.685 L 482.667 216.001 L 481.685 216.685 L 482.031 215.54 L 481.078 214.817 L 482.274 214.792 Z" style="fill: rgb(255, 174, 0);" transform="matrix(-0.809017, 0.587785, -0.587785, -0.809017, 602.869761, -69.285438)" bx:shape="star 482.667 215.333 1.671 1.671 0.4 5 1@5e4f2da5"/>
  <path d="M 482.667 213.662 L 483.06 214.792 L 484.256 214.817 L 483.303 215.54 L 483.649 216.685 L 482.667 216.001 L 481.685 216.685 L 482.031 215.54 L 481.078 214.817 L 482.274 214.792 Z" style="fill: rgb(255, 174, 0);" transform="matrix(-0.809017, 0.587785, -0.587785, -0.809017, 606.163585, -69.285454)" bx:shape="star 482.667 215.333 1.671 1.671 0.4 5 1@5e4f2da5"/>
  <rect class="f" x="64.877" y="46.354" width="6.388" height="6.388" style="fill: rgb(239, 63, 79);"/>
  <path d="M 482.667 213.662 L 483.06 214.792 L 484.256 214.817 L 483.303 215.54 L 483.649 216.685 L 482.667 216.001 L 481.685 216.685 L 482.031 215.54 L 481.078 214.817 L 482.274 214.792 Z" style="fill: rgb(255, 174, 0);" transform="matrix(-0.809017, 0.587785, -0.587785, -0.809017, 593.206004, -60.850941)" bx:shape="star 482.667 215.333 1.671 1.671 0.4 5 1@5e4f2da5"/>
  <rect class="f" x="74.866" y="51.298" width="18.578" height="1.132" style="fill: rgb(239, 63, 79);"/>
  <path d="M 482.667 213.662 L 483.06 214.792 L 484.256 214.817 L 483.303 215.54 L 483.649 216.685 L 482.667 216.001 L 481.685 216.685 L 482.031 215.54 L 481.078 214.817 L 482.274 214.792 Z" style="fill: rgb(255, 174, 0);" transform="matrix(-0.809017, 0.587785, -0.587785, -0.809017, 596.406566, -60.819881)" bx:shape="star 482.667 215.333 1.671 1.671 0.4 5 1@5e4f2da5"/>
  <path d="M 482.667 213.662 L 483.06 214.792 L 484.256 214.817 L 483.303 215.54 L 483.649 216.685 L 482.667 216.001 L 481.685 216.685 L 482.031 215.54 L 481.078 214.817 L 482.274 214.792 Z" style="fill: rgb(255, 174, 0);" transform="matrix(-0.809017, 0.587785, -0.587785, -0.809017, 599.669261, -60.788814)" bx:shape="star 482.667 215.333 1.671 1.671 0.4 5 1@5e4f2da5"/>
  <path d="M 482.667 213.662 L 483.06 214.792 L 484.256 214.817 L 483.303 215.54 L 483.649 216.685 L 482.667 216.001 L 481.685 216.685 L 482.031 215.54 L 481.078 214.817 L 482.274 214.792 Z" style="fill: rgb(255, 174, 0);" transform="matrix(-0.809017, 0.587785, -0.587785, -0.809017, 602.869823, -60.757755)" bx:shape="star 482.667 215.333 1.671 1.671 0.4 5 1@5e4f2da5"/>
  <path d="M 482.667 213.662 L 483.06 214.792 L 484.256 214.817 L 483.303 215.54 L 483.649 216.685 L 482.667 216.001 L 481.685 216.685 L 482.031 215.54 L 481.078 214.817 L 482.274 214.792 Z" style="fill: rgb(255, 174, 0);" transform="matrix(-0.809017, 0.587785, -0.587785, -0.809017, 606.163646, -60.75777)" bx:shape="star 482.667 215.333 1.671 1.671 0.4 5 1@5e4f2da5"/>
  <rect class="f" x="64.877" y="54.619" width="6.388" height="6.388" style="fill: rgb(239, 63, 79);"/>
  <path d="M 482.667 213.662 L 483.06 214.792 L 484.256 214.817 L 483.303 215.54 L 483.649 216.685 L 482.667 216.001 L 481.685 216.685 L 482.031 215.54 L 481.078 214.817 L 482.274 214.792 Z" style="fill: rgb(255, 174, 0);" transform="matrix(-0.809017, 0.587785, -0.587785, -0.809017, 593.206065, -52.585651)" bx:shape="star 482.667 215.333 1.671 1.671 0.4 5 1@5e4f2da5"/>
  <rect class="f" x="74.866" y="59.563" width="18.578" height="1.132" style="fill: rgb(239, 63, 79);"/>
  <path d="M 482.667 213.662 L 483.06 214.792 L 484.256 214.817 L 483.303 215.54 L 483.649 216.685 L 482.667 216.001 L 481.685 216.685 L 482.031 215.54 L 481.078 214.817 L 482.274 214.792 Z" style="fill: rgb(255, 174, 0);" transform="matrix(-0.809017, 0.587785, -0.587785, -0.809017, 596.406627, -52.554588)" bx:shape="star 482.667 215.333 1.671 1.671 0.4 5 1@5e4f2da5"/>
  <path d="M 482.667 213.662 L 483.06 214.792 L 484.256 214.817 L 483.303 215.54 L 483.649 216.685 L 482.667 216.001 L 481.685 216.685 L 482.031 215.54 L 481.078 214.817 L 482.274 214.792 Z" style="fill: rgb(255, 174, 0);" transform="matrix(-0.809017, 0.587785, -0.587785, -0.809017, 599.669322, -52.523521)" bx:shape="star 482.667 215.333 1.671 1.671 0.4 5 1@5e4f2da5"/>
  <path d="M 482.667 213.662 L 483.06 214.792 L 484.256 214.817 L 483.303 215.54 L 483.649 216.685 L 482.667 216.001 L 481.685 216.685 L 482.031 215.54 L 481.078 214.817 L 482.274 214.792 Z" style="fill: rgb(255, 174, 0);" transform="matrix(-0.809017, 0.587785, -0.587785, -0.809017, 602.869884, -52.492462)" bx:shape="star 482.667 215.333 1.671 1.671 0.4 5 1@5e4f2da5"/>
  <path d="M 482.667 213.662 L 483.06 214.792 L 484.256 214.817 L 483.303 215.54 L 483.649 216.685 L 482.667 216.001 L 481.685 216.685 L 482.031 215.54 L 481.078 214.817 L 482.274 214.792 Z" style="fill: rgb(255, 174, 0);" transform="matrix(-0.809017, 0.587785, -0.587785, -0.809017, 606.163707, -52.492477)" bx:shape="star 482.667 215.333 1.671 1.671 0.4 5 1@5e4f2da5"/>
  <rect class="f" x="64.877" y="62.753" width="6.388" height="6.388" style="fill: rgb(239, 63, 79);"/>
  <path d="M 482.667 213.662 L 483.06 214.792 L 484.256 214.817 L 483.303 215.54 L 483.649 216.685 L 482.667 216.001 L 481.685 216.685 L 482.031 215.54 L 481.078 214.817 L 482.274 214.792 Z" style="fill: rgb(255, 174, 0);" transform="matrix(-0.809017, 0.587785, -0.587785, -0.809017, 593.206126, -44.451553)" bx:shape="star 482.667 215.333 1.671 1.671 0.4 5 1@5e4f2da5"/>
  <rect class="f" x="74.866" y="67.697" width="18.578" height="1.132" style="fill: rgb(239, 63, 79);"/>
  <path d="M 482.667 213.662 L 483.06 214.792 L 484.256 214.817 L 483.303 215.54 L 483.649 216.685 L 482.667 216.001 L 481.685 216.685 L 482.031 215.54 L 481.078 214.817 L 482.274 214.792 Z" style="fill: rgb(255, 174, 0);" transform="matrix(-0.809017, 0.587785, -0.587785, -0.809017, 596.406688, -44.42049)" bx:shape="star 482.667 215.333 1.671 1.671 0.4 5 1@5e4f2da5"/>
  <path d="M 482.667 213.662 L 483.06 214.792 L 484.256 214.817 L 483.303 215.54 L 483.649 216.685 L 482.667 216.001 L 481.685 216.685 L 482.031 215.54 L 481.078 214.817 L 482.274 214.792 Z" style="fill: rgb(255, 174, 0);" transform="matrix(-0.809017, 0.587785, -0.587785, -0.809017, 599.669383, -44.389423)" bx:shape="star 482.667 215.333 1.671 1.671 0.4 5 1@5e4f2da5"/>
  <path d="M 482.667 213.662 L 483.06 214.792 L 484.256 214.817 L 483.303 215.54 L 483.649 216.685 L 482.667 216.001 L 481.685 216.685 L 482.031 215.54 L 481.078 214.817 L 482.274 214.792 Z" style="fill: rgb(255, 174, 0);" transform="matrix(-0.809017, 0.587785, -0.587785, -0.809017, 602.869945, -44.358364)" bx:shape="star 482.667 215.333 1.671 1.671 0.4 5 1@5e4f2da5"/>
  <path d="M 482.667 213.662 L 483.06 214.792 L 484.256 214.817 L 483.303 215.54 L 483.649 216.685 L 482.667 216.001 L 481.685 216.685 L 482.031 215.54 L 481.078 214.817 L 482.274 214.792 Z" style="fill: rgb(255, 174, 0);" transform="matrix(-0.809017, 0.587785, -0.587785, -0.809017, 606.163768, -44.358379)" bx:shape="star 482.667 215.333 1.671 1.671 0.4 5 1@5e4f2da5"/>
  <rect class="f" x="64.877" y="71.281" width="6.388" height="6.388" style="fill: rgb(239, 63, 79);"/>
  <path d="M 482.667 213.662 L 483.06 214.792 L 484.256 214.817 L 483.303 215.54 L 483.649 216.685 L 482.667 216.001 L 481.685 216.685 L 482.031 215.54 L 481.078 214.817 L 482.274 214.792 Z" style="fill: rgb(255, 174, 0);" transform="matrix(-0.809017, 0.587785, -0.587785, -0.809017, 593.206187, -35.92387)" bx:shape="star 482.667 215.333 1.671 1.671 0.4 5 1@5e4f2da5"/>
  <rect class="f" x="74.866" y="76.225" width="18.578" height="1.132" style="fill: rgb(239, 63, 79);"/>
  <path d="M 482.667 213.662 L 483.06 214.792 L 484.256 214.817 L 483.303 215.54 L 483.649 216.685 L 482.667 216.001 L 481.685 216.685 L 482.031 215.54 L 481.078 214.817 L 482.274 214.792 Z" style="fill: rgb(255, 174, 0);" transform="matrix(-0.809017, 0.587785, -0.587785, -0.809017, 596.406749, -35.892807)" bx:shape="star 482.667 215.333 1.671 1.671 0.4 5 1@5e4f2da5"/>
  <path d="M 482.667 213.662 L 483.06 214.792 L 484.256 214.817 L 483.303 215.54 L 483.649 216.685 L 482.667 216.001 L 481.685 216.685 L 482.031 215.54 L 481.078 214.817 L 482.274 214.792 Z" style="fill: rgb(255, 174, 0);" transform="matrix(-0.809017, 0.587785, -0.587785, -0.809017, 599.669444, -35.86174)" bx:shape="star 482.667 215.333 1.671 1.671 0.4 5 1@5e4f2da5"/>
  <path d="M 482.667 213.662 L 483.06 214.792 L 484.256 214.817 L 483.303 215.54 L 483.649 216.685 L 482.667 216.001 L 481.685 216.685 L 482.031 215.54 L 481.078 214.817 L 482.274 214.792 Z" style="fill: rgb(255, 174, 0);" transform="matrix(-0.809017, 0.587785, -0.587785, -0.809017, 602.870006, -35.830681)" bx:shape="star 482.667 215.333 1.671 1.671 0.4 5 1@5e4f2da5"/>
  <path d="M 482.667 213.662 L 483.06 214.792 L 484.256 214.817 L 483.303 215.54 L 483.649 216.685 L 482.667 216.001 L 481.685 216.685 L 482.031 215.54 L 481.078 214.817 L 482.274 214.792 Z" style="fill: rgb(255, 174, 0);" transform="matrix(-0.809017, 0.587785, -0.587785, -0.809017, 606.163829, -35.830696)" bx:shape="star 482.667 215.333 1.671 1.671 0.4 5 1@5e4f2da5"/>
  <rect class="f" x="64.877" y="80.137" width="6.388" height="6.388" style="fill: rgb(239, 63, 79);"/>
  <path d="M 482.667 213.662 L 483.06 214.792 L 484.256 214.817 L 483.303 215.54 L 483.649 216.685 L 482.667 216.001 L 481.685 216.685 L 482.031 215.54 L 481.078 214.817 L 482.274 214.792 Z" style="fill: rgb(255, 174, 0);" transform="matrix(-0.809017, 0.587785, -0.587785, -0.809017, 593.206248, -27.068199)" bx:shape="star 482.667 215.333 1.671 1.671 0.4 5 1@5e4f2da5"/>
  <rect class="f" x="74.866" y="85.081" width="18.578" height="1.132" style="fill: rgb(239, 63, 79);"/>
  <path d="M 482.667 213.662 L 483.06 214.792 L 484.256 214.817 L 483.303 215.54 L 483.649 216.685 L 482.667 216.001 L 481.685 216.685 L 482.031 215.54 L 481.078 214.817 L 482.274 214.792 Z" style="fill: rgb(255, 174, 0);" transform="matrix(-0.809017, 0.587785, -0.587785, -0.809017, 596.40681, -27.037136)" bx:shape="star 482.667 215.333 1.671 1.671 0.4 5 1@5e4f2da5"/>
  <path d="M 482.667 213.662 L 483.06 214.792 L 484.256 214.817 L 483.303 215.54 L 483.649 216.685 L 482.667 216.001 L 481.685 216.685 L 482.031 215.54 L 481.078 214.817 L 482.274 214.792 Z" style="fill: rgb(255, 174, 0);" transform="matrix(-0.809017, 0.587785, -0.587785, -0.809017, 599.669505, -27.006069)" bx:shape="star 482.667 215.333 1.671 1.671 0.4 5 1@5e4f2da5"/>
  <path d="M 482.667 213.662 L 483.06 214.792 L 484.256 214.817 L 483.303 215.54 L 483.649 216.685 L 482.667 216.001 L 481.685 216.685 L 482.031 215.54 L 481.078 214.817 L 482.274 214.792 Z" style="fill: rgb(255, 174, 0);" transform="matrix(-0.809017, 0.587785, -0.587785, -0.809017, 602.870067, -26.97501)" bx:shape="star 482.667 215.333 1.671 1.671 0.4 5 1@5e4f2da5"/>
  <path d="M 482.667 213.662 L 483.06 214.792 L 484.256 214.817 L 483.303 215.54 L 483.649 216.685 L 482.667 216.001 L 481.685 216.685 L 482.031 215.54 L 481.078 214.817 L 482.274 214.792 Z" style="fill: rgb(255, 174, 0);" transform="matrix(-0.809017, 0.587785, -0.587785, -0.809017, 606.16389, -26.975025)" bx:shape="star 482.667 215.333 1.671 1.671 0.4 5 1@5e4f2da5"/>
  <rect class="f" x="64.877" y="88.468" width="6.388" height="6.388" style="fill: rgb(239, 63, 79);"/>
  <path d="M 482.667 213.662 L 483.06 214.792 L 484.256 214.817 L 483.303 215.54 L 483.649 216.685 L 482.667 216.001 L 481.685 216.685 L 482.031 215.54 L 481.078 214.817 L 482.274 214.792 Z" style="fill: rgb(255, 174, 0);" transform="matrix(-0.809017, 0.587785, -0.587785, -0.809017, 593.206309, -18.737306)" bx:shape="star 482.667 215.333 1.671 1.671 0.4 5 1@5e4f2da5"/>
  <rect class="f" x="74.866" y="93.412" width="18.578" height="1.132" style="fill: rgb(239, 63, 79);"/>
  <path d="M 482.667 213.662 L 483.06 214.792 L 484.256 214.817 L 483.303 215.54 L 483.649 216.685 L 482.667 216.001 L 481.685 216.685 L 482.031 215.54 L 481.078 214.817 L 482.274 214.792 Z" style="fill: rgb(255, 174, 0);" transform="matrix(-0.809017, 0.587785, -0.587785, -0.809017, 596.406871, -18.706243)" bx:shape="star 482.667 215.333 1.671 1.671 0.4 5 1@5e4f2da5"/>
  <path d="M 482.667 213.662 L 483.06 214.792 L 484.256 214.817 L 483.303 215.54 L 483.649 216.685 L 482.667 216.001 L 481.685 216.685 L 482.031 215.54 L 481.078 214.817 L 482.274 214.792 Z" style="fill: rgb(255, 174, 0);" transform="matrix(-0.809017, 0.587785, -0.587785, -0.809017, 599.669566, -18.675177)" bx:shape="star 482.667 215.333 1.671 1.671 0.4 5 1@5e4f2da5"/>
  <path d="M 482.667 213.662 L 483.06 214.792 L 484.256 214.817 L 483.303 215.54 L 483.649 216.685 L 482.667 216.001 L 481.685 216.685 L 482.031 215.54 L 481.078 214.817 L 482.274 214.792 Z" style="fill: rgb(255, 174, 0);" transform="matrix(-0.809017, 0.587785, -0.587785, -0.809017, 602.870128, -18.644119)" bx:shape="star 482.667 215.333 1.671 1.671 0.4 5 1@5e4f2da5"/>
  <path d="M 482.667 213.662 L 483.06 214.792 L 484.256 214.817 L 483.303 215.54 L 483.649 216.685 L 482.667 216.001 L 481.685 216.685 L 482.031 215.54 L 481.078 214.817 L 482.274 214.792 Z" style="fill: rgb(255, 174, 0);" transform="matrix(-0.809017, 0.587785, -0.587785, -0.809017, 606.163951, -18.644133)" bx:shape="star 482.667 215.333 1.671 1.671 0.4 5 1@5e4f2da5"/>
</svg>